<svg width="1440" height="1024" viewBox="0 0 1440 1024" fill="none" xmlns="http://www.w3.org/2000/svg">
<rect width="1440" height="1024" fill="#F5F5F5"/>
<rect width="1440" height="1024" fill="white"/>
<path d="M751.5 183L742.5 136L660.5 192L599.5 345.5L587.5 335L502 526.5L474.5 517.5L433.5 721.5L373 768.5L383.5 817H742.5L964.5 840L1100 797.5L1069.5 688L1022.5 542L964.5 476.5H941.5L817 295.5L798.5 224L751.5 183Z" fill="#6A3500" stroke="black"/>
<path d="M640.5 626.5L709 351.5L847 610L763.5 689L640.5 626.5Z" fill="#E6A564"/>
<path d="M709 351.5L640.5 626.5L763.5 689M709 351.5L763.5 689M709 351.5L847 610L763.5 689" stroke="black"/>
<path d="M934 552L956.779 843L1118 798.5L934 552Z" fill="#D78E49" stroke="black"/>
<path d="M1024 809.375L951 546L903.5 651L933 831.158L968 847L1024 809.375Z" fill="#D78E49" stroke="black"/>
<path d="M648 719.5L371 766.5L380.5 815.5H549L648 719.5Z" fill="#D78E49" stroke="black"/>
<path d="M965 847L829.289 599L783.652 682.58L813.076 772.326H720L965 847Z" fill="#B6693A" stroke="black"/>
<path d="M636 719.5L473 525L468.5 532.5L505 745.5L636 719.5Z" fill="#E6A564" stroke="black"/>
<path d="M650.92 654L598 804.975L787 837L650.92 654Z" fill="#D78E49" stroke="black"/>
<path d="M1077 707.5L1022 693.5L1101.5 794L1077 707.5Z" fill="#D78E49" stroke="black"/>
<path d="M505 525L588.5 333L556.5 591.5L505 525Z" fill="#E6A564" stroke="black"/>
<path d="M622 535.5L588.5 330L554 584L622 535.5Z" fill="#D78E49" stroke="black"/>
<path d="M593 360.5L660 193L710.5 348.5L637.5 628L616 537L593 360.5Z" fill="#E6A564" stroke="black"/>
<path d="M639 623.5L658.5 196L710.5 350L639 623.5Z" fill="#D78E49" stroke="black"/>
<path d="M658.5 191.5L744 137L684.5 272.5L658.5 191.5Z" fill="#E6A564" stroke="black"/>
<path d="M753 188.5L744 134L678.5 271L710.5 356L818.5 295L801.5 228L753 188.5Z" fill="#D78E49" stroke="black"/>
<path d="M712 353L821.5 295L795.5 509.5L756 453.5L712 353Z" fill="#E6A564" stroke="black"/>
<path d="M896 409L823 287.5L803 403L788 521.5L896 409Z" fill="#D78E49" stroke="black"/>
<path d="M471.5 523L476 515.5L506.5 523L556.5 585.5L672.5 722.5H631L471.5 523Z" fill="#6C4213" stroke="black"/>
<path d="M427.5 727.492L436.5 721V754.5L375.5 765L427.5 727.492L445.5 633L468.5 546V663L427.5 727.492Z" fill="#E6A564"/>
<path d="M436.5 721L375.5 765L436.5 754.5V721ZM436.5 721L427.5 727.492M427.5 727.492L468.5 663V546L445.5 633L427.5 727.492Z" stroke="black"/>
<path d="M461 664.5L470 546L508 756H436.5L426 728.5L461 664.5Z" fill="#D78E49" stroke="black"/>
<path d="M556.5 578L614.5 540L602.5 639L556.5 578Z" fill="#E6A564" stroke="black"/>
<path d="M643.5 628L614.5 541.5L598 636L643.5 690.5V628Z" fill="#6C4213" stroke="black"/>
<path d="M632 674.167V592L672 728L632 674.167Z" fill="#E6A564" stroke="black"/>
<path d="M897.5 680V409L964.5 576.5L897.5 680Z" fill="#D78E49" stroke="black"/>
<path d="M795.5 514L903.5 392.5V488.5L844 608.5L795.5 514Z" fill="#E6A564" stroke="black"/>
<path d="M947.5 479L906.5 424.5L938.5 555L1019 695L1057 642L947.5 479Z" fill="#E6A564" stroke="black"/>
<path d="M826 627.637L907 473V584.822L893.665 677L826 627.637Z" fill="#E6A564" stroke="black"/>
<path d="M742.5 818.5L628 754.5V741L549 818.5H742.5Z" fill="#E6A564" stroke="black"/>
<path d="M704 655.606L642 622L668.66 741L704 655.606Z" fill="#D78E49" stroke="black"/>
<path d="M783.706 639L753 820.241L931 837L783.706 639Z" fill="#D78E49" stroke="black"/>
<path d="M660 753L709 636L760.5 818.5L660 753Z" fill="#E6A564" stroke="black"/>
<path d="M800 680.5L695.133 610.5L679 583L752.752 808L800 680.5Z" fill="#D78E49" stroke="black"/>
<path d="M899 727V640.5L950.5 710.5L935.5 803L899 727Z" fill="#D78E49" stroke="black"/>
<path d="M853.5 643.5H900.5V731.5L853.5 643.5Z" fill="#E6A564" stroke="black"/>
<path d="M970.5 476L934 465.5L988.5 543L1055.5 639L1026.5 543L970.5 476Z" fill="#E6A564" stroke="black"/>
<path d="M1014.5 704.5L1048 622L1083 716.5L1014.5 704.5Z" fill="#E6A564" stroke="black"/>
</svg>
